<svg width="81" height="28" viewBox="0 0 81 28" fill="none" xmlns="http://www.w3.org/2000/svg">
<path d="M28.1 19C28.1 19 27.2 18.9 23.1 17.6C22 17.2 20.5 16.7 18.8 16C19.8 14.3 20.6 12.3 21.1 10.1H15.6V8.1H22.4V7H15.6V3.7H12.8C12.3 3.7 12.3 4.2 12.3 4.2V7H5.5V8.1H12.4V10.1H6.7V11.2H17.7C17.3 12.6 16.8 13.9 16.1 15.1C12.5 13.9 8.7 13 6.4 13.6C4.9 14 3.9 14.6 3.3 15.3C0.6 18.5 2.6 23.4 8.1 23.4C11.4 23.4 14.6 21.6 17.1 18.5C20.8 20.3 28.1 23.3 28.1 23.3V23.5C28.1 26 26.1 28 23.6 28H4.5C2 28 0 26 0 23.5V4.5C0 2 2 0 4.5 0H23.6C26.1 0 28.1 2 28.1 4.5V19ZM7.6 21.5C3.2 21.5 1.9 18.1 4.1 16.2C4.8 15.6 6.1 15.3 6.8 15.2C9.4 14.9 11.8 15.9 14.6 17.3C12.7 19.9 10.1 21.5 7.6 21.5Z" fill="#226BF3"/>
<path d="M69.5 4.3998H77.7V5.9998H80.6V4.3998V4.0998C80.6 3.6998 80.3 3.2998 79.8 3.2998H75.1V1.7998H72V3.2998H66.5V3.7998V4.2998V5.9998H69.4L69.5 4.3998Z" fill="#333333"/>
<path d="M51.8008 1.90039L48.8008 9.00039H51.1008V17.4004H53.6008V6.30039H52.7008L54.6008 1.90039H51.8008Z" fill="#333333"/>
<path d="M80.9 17.1L80 13.9C79.9 13.7 79.8 13.6 79.5 13.6H77.1L77.8 16H74.9V11.4H80.5V10.3H74.9V8.1H80.5V7H74.9H72.1H66.5V8.1H72.1V10.3H66.5V11.4H72.1V16H66.5V17.1H80.9Z" fill="#333333"/>
<path d="M57.7 7.40039H55.5L57.2 12.7004H59.8L58.2 7.70039C58.1 7.50039 57.9 7.40039 57.7 7.40039Z" fill="#333333"/>
<path d="M63.6992 2.09961H61.0992V4.79961H54.6992V5.89961H61.0992V15.6996C61.0992 15.8996 60.8992 16.0996 60.6992 16.0996H59.3992V17.1996H62.7992C63.2992 17.1996 63.7992 16.6996 63.7992 16.1996V16.0996V5.89961H64.8992V4.79961H63.7992V2.09961H63.6992Z" fill="#333333"/>
<path d="M48.4 16.3998C46 15.4998 44.1 14.5998 42.7 13.6998C44.8 12.0998 46.7 9.9998 47.5 7.0998H42.5V5.1998H48.3V4.0998H42.5V1.7998H39.9C39.6 1.7998 39.4 1.9998 39.4 2.2998V3.9998H33.6V5.0998H39.4V6.9998H34.5V8.0998H44.2C44.2 8.0998 43.7 10.1998 41 12.3998C38.6 10.5998 37.8 9.1998 37.8 9.1998H35.2C36.3 10.9998 37.7 12.4998 39.4 13.5998C37.9 14.5998 36 15.4998 33.5 16.1998V17.4998C33.5 17.4998 37.3 16.7998 41 14.5998C44.7 16.7998 48.4 17.4998 48.4 17.4998V16.3998Z" fill="#333333"/>
<path d="M38.1016 21.4002L39.0016 24.1002H37.2016L38.1016 21.4002ZM39.2016 24.9002L39.6016 26.2002H40.8016L38.4016 19.7002H37.5016L35.1016 26.2002H36.3016L36.8016 24.9002H39.2016Z" fill="#333333"/>
<path d="M44.6992 19.7002V26.2002H48.5992V25.3002H45.8992V19.7002H44.6992Z" fill="#333333"/>
<path d="M52.8984 26.2002H54.0984V19.7002H52.8984V26.2002Z" fill="#333333"/>
<path d="M61.3008 22.8002H60.0008V20.6002H61.3008C61.9008 20.6002 62.3008 21.2002 62.3008 21.7002C62.3008 22.2002 61.9008 22.8002 61.3008 22.8002ZM61.3008 19.7002H58.8008V26.2002H60.0008V23.7002H61.4008C62.7008 23.7002 63.5008 22.9002 63.5008 21.7002C63.5008 20.5002 62.6008 19.7002 61.3008 19.7002Z" fill="#333333"/>
<path d="M69.2008 21.4002L70.1008 24.1002H68.3008L69.2008 21.4002ZM70.3008 24.9002L70.7008 26.2002H72.0008L69.6008 19.7002H68.7008L66.3008 26.2002H67.5008L68.0008 24.9002H70.3008Z" fill="#333333"/>
<path d="M78.5016 19.7002L77.2016 22.5002L75.9016 19.7002H74.6016L76.6016 23.5002V26.2002H77.8016V23.5002L79.7016 19.7002H78.5016Z" fill="#333333"/>
</svg>
